# xmcd
#
# Track frame offsets:
# 150
# 4136
# 25556
# 38946
# 55566
# 66516
# 81131
# 105774
# 120699
# 136608
# 154512
# 177088
# 197125
# 199424
#
# Disc length: 2783 seconds
#
#
# Revision: 1
# Processed by: cddbd v1.5PL3 Copyright (c) Steve Scherf et al.
# Submitted via: FreeRIP 2.53 
#
DISCID=aa0add0e
DTITLE=Bob Livingston - Mahatma Gandhi and Sitting Bull
DYEAR=2003
DGENRE=Country
TTITLE0=Prelude
TTITLE1=Original Spirit
TTITLE2=Mahatma Gandhi and Sitting Bull
TTITLE3=On a Dream with You
TTITLE4=Take Advantage of your Chances
TTITLE5=I Believe It!
TTITLE6=Cowboys and Indians
TTITLE7=Love Cannot Be Broken
TTITLE8=Rainin' For So Long
TTITLE9=The Prophet Said
TTITLE10=Wilderness Song
TTITLE11=When The Beat Was Young
TTITLE12=A Slight Breath
TTITLE13=Cowboys and Indians Return
EXTD=
EXTT0=
EXTT1=
EXTT2=
EXTT3=
EXTT4=
EXTT5=
EXTT6=
EXTT7=
EXTT8=
EXTT9=
EXTT10=
EXTT11=
EXTT12=
EXTT13=
PLAYORDER=
